<?xml version="1.0" encoding="UTF-8" standalone="no"?>
<svg
   width="16"
   height="16"
   viewBox="0 0 4.2333333 4.2333333"
   version="1.1"
   id="svg8"
   sodipodi:docname="anima.svg"
   inkscape:version="1.1 (c4e8f9ed74, 2021-05-24)"
   xmlns:inkscape="http://www.inkscape.org/namespaces/inkscape"
   xmlns:sodipodi="http://sodipodi.sourceforge.net/DTD/sodipodi-0.dtd"
   xmlns="http://www.w3.org/2000/svg"
   xmlns:svg="http://www.w3.org/2000/svg"
   xmlns:rdf="http://www.w3.org/1999/02/22-rdf-syntax-ns#"
   xmlns:cc="http://creativecommons.org/ns#"
   xmlns:dc="http://purl.org/dc/elements/1.1/">
  <style
     id="style833" />
  <defs
     id="defs2" />
  <sodipodi:namedview
     id="base"
     pagecolor="#ffffff"
     bordercolor="#666666"
     borderopacity="1.0"
     inkscape:pageopacity="0.0"
     inkscape:pageshadow="2"
     inkscape:zoom="63.36"
     inkscape:cx="10.77178"
     inkscape:cy="7.7335859"
     inkscape:document-units="mm"
     inkscape:current-layer="layer1"
     inkscape:document-rotation="0"
     showgrid="true"
     inkscape:window-width="3440"
     inkscape:window-height="1409"
     inkscape:window-x="0"
     inkscape:window-y="0"
     inkscape:window-maximized="1"
     inkscape:pagecheckerboard="0"
     units="px"
     width="16px">
    <inkscape:grid
       type="xygrid"
       id="grid835" />
  </sodipodi:namedview>
  <metadata
     id="metadata5">
    <rdf:RDF>
      <cc:Work
         rdf:about="">
        <dc:format>image/svg+xml</dc:format>
        <dc:type
           rdf:resource="http://purl.org/dc/dcmitype/StillImage" />
      </cc:Work>
    </rdf:RDF>
  </metadata>
  <g
     inkscape:label="Layer 1"
     inkscape:groupmode="layer"
     id="layer1">
    <g
       id="g890"
       style="fill:#3274cb;fill-opacity:1"
       transform="matrix(0.03559943,0,0,0.03559943,-0.50232726,-3.5512352)">
      <path
         id="rect837"
         style="fill:#e0e0e0;fill-opacity:1;stroke:#494949;stroke-width:3.99999;stroke-opacity:1"
         d="M 235.01953,430.96875 90,793.00391 l 64.98047,26.02734 39.66992,-99.03516 A 19.999999,19.999999 0 0 1 174.95898,700 a 19.999999,19.999999 0 0 1 20,-20 19.999999,19.999999 0 0 1 13.58204,5.32031 L 300,456.99609 Z"
         transform="scale(0.26458333)" />
      <path
         id="rect850"
         style="fill:#e0e0e0;fill-opacity:1;stroke:#494949;stroke-width:4.57141;stroke-opacity:1"
         d="m 300,380 -74.26367,29.74805 18.81445,46.96679 a 19.999999,19.999999 0 0 1 12.47266,-4.36718 19.999999,19.999999 0 0 1 20,20 19.999999,19.999999 0 0 1 -18.23242,19.92187 l 79.06054,197.37109 A 19.999999,19.999999 0 0 1 354.95898,680 a 19.999999,19.999999 0 0 1 20,20 19.999999,19.999999 0 0 1 -20,20 19.999999,19.999999 0 0 1 -5.2246,-0.69531 l 41.73828,104.19726 74.26367,-29.74804 z"
         transform="scale(0.26458333)" />
      <path
         id="path852"
         style="fill:#e0e0e0;fill-opacity:1;stroke:#494949;stroke-width:3.99999;stroke-opacity:1"
         d="m 194.95898,680 a 19.999999,19.999999 0 0 0 -20,20 19.999999,19.999999 0 0 0 20,20 19.999999,19.999999 0 0 0 17.32032,-10 h 125.35937 a 19.999999,19.999999 0 0 0 17.32031,10 19.999999,19.999999 0 0 0 20,-20 19.999999,19.999999 0 0 0 -20,-20 19.999999,19.999999 0 0 0 -17.32226,10 H 212.27734 a 19.999999,19.999999 0 0 0 -17.31836,-10 z"
         transform="scale(0.26458333)" />
    </g>
  </g>
</svg>
