<?xml version="1.0" encoding="UTF-8" standalone="no"?>
<svg
   height="32"
   viewBox="0 0 32 32"
   width="32"
   version="1.1"
   id="svg826"
   sodipodi:docname="Animation.svg"
   inkscape:version="1.1 (c4e8f9e, 2021-05-24)"
   xmlns:inkscape="http://www.inkscape.org/namespaces/inkscape"
   xmlns:sodipodi="http://sodipodi.sourceforge.net/DTD/sodipodi-0.dtd"
   xmlns="http://www.w3.org/2000/svg"
   xmlns:svg="http://www.w3.org/2000/svg">
  <defs
     id="defs830" />
  <sodipodi:namedview
     id="namedview828"
     pagecolor="#ffffff"
     bordercolor="#666666"
     borderopacity="1.0"
     inkscape:pageshadow="2"
     inkscape:pageopacity="0.0"
     inkscape:pagecheckerboard="0"
     showgrid="false"
     width="32px"
     inkscape:zoom="11.575396"
     inkscape:cx="-25.225919"
     inkscape:cy="15.93898"
     inkscape:window-width="3972"
     inkscape:window-height="1387"
     inkscape:window-x="1148"
     inkscape:window-y="25"
     inkscape:window-maximized="0"
     inkscape:current-layer="svg826" />
  <path
     d="m 14.99998,2 a 12,12 0 0 0 -12,12 12,12 0 0 0 12,12 12,12 0 0 0 8,-3.0704 V 26 h 0.004 a 4,4 0 0 0 0.53124,2 4,4 0 0 0 3.4648,2 h 2 v -2 -2 h -1 a 1,0.99998 0 0 1 -1,-1 V 24 14 a 12,12 0 0 0 -12,-12 z m 0,2 a 2,2 0 0 1 2,2 2,2 0 0 1 -2,2 2,2 0 0 1 -2,-2 2,2 0 0 1 2,-2 z m 6.8828,4 a 2,2 0 0 1 1.77734,1 2,2 0 0 1 -0.73046,2.7304 2,2 0 0 1 -2.7344,-0.73046 2,2 0 0 1 0.73438,-2.7304 A 2,2 0 0 1 21.88276,8 Z M 7.97658,8.0039 a 2,2 0 0 1 1.09376,0.26562 2,2 0 0 1 0.73438,2.7304 2,2 0 0 1 -2.7344,0.73046 2,2 0 0 1 -0.73046,-2.7304 2,2 0 0 1 1.63672,-0.9961 z m 0.046876,7.996 a 2,2 0 0 1 1.78124,1 2,2 0 0 1 -0.73438,2.7304 2,2 0 0 1 -2.7304,-0.73046 2,2 0 0 1 0.73046,-2.7304 2,2 0 0 1 0.95312,-0.26954 z m 13.8086,0.0039 a 2,2 0 0 1 1.09766,0.26562 2,2 0 0 1 0.73046,2.7304 2,2 0 0 1 -2.7304,0.73046 2,2 0 0 1 -0.73438,-2.7304 2,2 0 0 1 1.63672,-0.9961 z m -6.832,3.996 a 2,2 0 0 1 2,2 2,2 0 0 1 -2,2 2,2 0 0 1 -2,-2 2,2 0 0 1 2,-2 z"
     fill="#e0e0e0"
     id="path824"
     style="stroke-width:2" />
</svg>
