<?xml version="1.0" encoding="UTF-8" standalone="no"?>
<!-- Uploaded to: SVG Repo, www.svgrepo.com, Generator: SVG Repo Mixer Tools -->

<svg
   fill="#000000"
   height="16"
   width="16"
   version="1.1"
   id="Capa_1"
   viewBox="0 0 1.2 1.2"
   xml:space="preserve"
   sodipodi:docname="more.svg"
   inkscape:version="1.1 (c4e8f9e, 2021-05-24)"
   xmlns:inkscape="http://www.inkscape.org/namespaces/inkscape"
   xmlns:sodipodi="http://sodipodi.sourceforge.net/DTD/sodipodi-0.dtd"
   xmlns="http://www.w3.org/2000/svg"
   xmlns:svg="http://www.w3.org/2000/svg"><defs
   id="defs13" /><sodipodi:namedview
   id="namedview11"
   pagecolor="#ffffff"
   bordercolor="#666666"
   borderopacity="1.0"
   inkscape:pageshadow="2"
   inkscape:pageopacity="0.0"
   inkscape:pagecheckerboard="0"
   showgrid="false"
   inkscape:zoom="9.6000744"
   inkscape:cx="-1.6666537"
   inkscape:cy="9.4270103"
   inkscape:window-width="1296"
   inkscape:window-height="1003"
   inkscape:window-x="1823"
   inkscape:window-y="125"
   inkscape:window-maximized="0"
   inkscape:current-layer="Capa_1" />
<g
   id="g8"
   transform="scale(0.02)"
   style="fill:#ffffff;fill-opacity:1">
	<path
   d="m 30,16 c 4.411,0 8,-3.589 8,-8 0,-4.411 -3.589,-8 -8,-8 -4.411,0 -8,3.589 -8,8 0,4.411 3.589,8 8,8 z"
   id="path2"
   style="fill:#ffffff;fill-opacity:1" />
	<path
   d="m 30,44 c -4.411,0 -8,3.589 -8,8 0,4.411 3.589,8 8,8 4.411,0 8,-3.589 8,-8 0,-4.411 -3.589,-8 -8,-8 z"
   id="path4"
   style="fill:#ffffff;fill-opacity:1" />
	<path
   d="m 30,22 c -4.411,0 -8,3.589 -8,8 0,4.411 3.589,8 8,8 4.411,0 8,-3.589 8,-8 0,-4.411 -3.589,-8 -8,-8 z"
   id="path6"
   style="fill:#ffffff;fill-opacity:1" />
</g>
</svg>
