<?xml version="1.0" encoding="UTF-8" standalone="no"?>
<!-- Created with Inkscape (http://www.inkscape.org/) -->

<svg
   width="144.5mm"
   height="144.5mm"
   viewBox="0 0 144.5 144.5"
   version="1.1"
   id="svg5"
   inkscape:version="1.1 (c4e8f9e, 2021-05-24)"
   sodipodi:docname="easy_to_use.svg"
   xmlns:inkscape="http://www.inkscape.org/namespaces/inkscape"
   xmlns:sodipodi="http://sodipodi.sourceforge.net/DTD/sodipodi-0.dtd"
   xmlns="http://www.w3.org/2000/svg"
   xmlns:svg="http://www.w3.org/2000/svg">
  <sodipodi:namedview
     id="namedview7"
     pagecolor="#ffffff"
     bordercolor="#666666"
     borderopacity="1.0"
     inkscape:pageshadow="2"
     inkscape:pageopacity="0.0"
     inkscape:pagecheckerboard="0"
     inkscape:document-units="mm"
     showgrid="true"
     inkscape:zoom="0.64546527"
     inkscape:cx="45.703466"
     inkscape:cy="374.14871"
     inkscape:window-width="1312"
     inkscape:window-height="847"
     inkscape:window-x="0"
     inkscape:window-y="25"
     inkscape:window-maximized="0"
     inkscape:current-layer="layer1"
     width="144.5mm">
    <inkscape:grid
       type="xygrid"
       id="grid1474" />
  </sodipodi:namedview>
  <defs
     id="defs2" />
  <g
     inkscape:label="Layer 1"
     inkscape:groupmode="layer"
     id="layer1">
    <path
       style="fill:#000000;stroke-width:0.142345"
       d="m 39.6336,106.411 c -0.449523,-0.20096 -0.721842,-0.44761 -0.941377,-0.85264 -0.306842,-0.56611 -0.308889,-0.6923 -0.308889,-19.049317 0,-18.384201 0.0016,-18.482368 0.310295,-19.051902 0.225283,-0.415642 0.485902,-0.648411 0.951275,-0.849619 0.620192,-0.268146 0.877813,-0.277135 7.942175,-0.277135 7.915012,0 8.18579,0.0209 9.812953,0.757331 0.966861,0.437588 2.346118,1.672514 2.739044,2.452417 0.271018,0.537936 0.325983,0.57457 0.753101,0.50194 0.73934,-0.12572 2.786617,-1.090527 3.872592,-1.825011 2.856161,-1.931721 5.810381,-5.623127 7.592659,-9.487306 0.307132,-0.665895 0.952616,-2.59971 1.43441,-4.297365 1.193096,-4.204011 1.272945,-4.288791 4.1021,-4.355374 3.391585,-0.07982 5.469544,0.582839 7.49204,2.389202 1.986446,1.774167 2.695042,3.506956 2.698906,6.599849 0.0042,3.412388 -0.662197,7.618166 -1.742671,10.997369 l -0.09678,0.30268 h 6.774922 c 3.978342,0 7.109545,0.05668 7.585585,0.13731 4.08663,0.692193 6.53936,4.545679 5.09216,8.000308 -0.16174,0.38613 -0.50262,0.983229 -0.75748,1.326884 l -0.46339,0.624826 0.46339,0.624828 c 0.83854,1.130691 1.12077,1.989582 1.12077,3.410904 0,1.421317 -0.28223,2.280213 -1.12077,3.410902 l -0.46339,0.624826 0.46339,0.624832 c 2.3409,3.156449 1.00144,7.407099 -2.80024,8.886303 -0.81555,0.317325 -0.95037,0.41674 -0.87447,0.644835 0.3169,0.952301 0.41267,2.003963 0.25828,2.836113 -0.47396,2.5546 -2.6381,4.55735 -5.436863,5.0314 -1.104318,0.18706 -20.791022,0.1833 -22.728378,-0.004 -2.208376,-0.21388 -3.605056,-0.53727 -8.52528,-1.97404 -4.286237,-1.25163 -4.510139,-1.30235 -4.669227,-1.05766 -0.786154,1.20915 -2.14603,2.24437 -3.670649,2.79429 -0.859465,0.31002 -0.908659,0.31202 -8.546073,0.34847 -7.546468,0.036 -7.692763,0.0317 -8.314121,-0.24611 z m 15.864218,-4.12631 c 1.019415,-0.64946 0.959946,0.32786 0.959946,-15.775647 0,-16.103496 0.05947,-15.126181 -0.959946,-15.77563 -0.465838,-0.296777 -0.53671,-0.300443 -6.533412,-0.338039 l -6.062464,-0.038 v 16.151673 16.151683 l 6.062464,-0.038 c 5.996702,-0.0376 6.067574,-0.0413 6.533412,-0.33803 z m -6.827004,-3.948284 c -0.451635,-0.199667 -0.720809,-0.442576 -0.941376,-0.849517 -0.388467,-0.716711 -0.388195,-1.060826 0.0014,-1.779626 0.327699,-0.604586 1.230918,-1.126763 1.949015,-1.126763 0.718095,0 1.621313,0.522177 1.949009,1.126763 0.170662,0.314858 0.310294,0.715859 0.310294,0.891106 0,0.641361 -0.584642,1.448058 -1.261569,1.740733 -0.807206,0.349004 -1.212475,0.348463 -2.006773,-0.003 z m 47.192001,4.097194 c 1.473512,-0.6245 1.670245,-2.579682 0.344419,-3.422865 -0.235951,-0.150056 -0.804367,-0.327392 -1.263152,-0.394076 -1.106235,-0.16081 -1.678142,-0.483239 -2.039415,-1.149783 -0.377444,-0.696372 -0.375016,-1.045117 0.01222,-1.759613 0.225284,-0.415644 0.485903,-0.648413 0.951273,-0.84962 0.573556,-0.247982 0.922778,-0.277143 3.319494,-0.277143 2.983736,0 3.436896,-0.09605 4.044916,-0.857353 0.46884,-0.587046 0.46884,-1.733971 0,-2.321008 -0.60802,-0.761317 -1.06118,-0.857363 -4.044916,-0.857363 -2.396716,0 -2.745938,-0.02916 -3.319489,-0.277133 -0.676926,-0.292683 -1.261566,-1.099378 -1.261566,-1.740736 0,-0.641357 0.58464,-1.448053 1.261566,-1.740728 0.573551,-0.247983 0.922773,-0.277136 3.319489,-0.277136 2.983736,0 3.436896,-0.09605 4.044916,-0.857365 0.46884,-0.587036 0.46884,-1.733964 0,-2.321001 -0.60802,-0.761314 -1.06118,-0.857366 -4.044916,-0.857366 -2.396716,0 -2.745938,-0.02917 -3.319489,-0.277136 -0.676926,-0.292675 -1.261566,-1.099371 -1.261566,-1.740728 0,-0.641355 0.58464,-1.448052 1.261566,-1.740729 0.573551,-0.247979 0.922773,-0.277134 3.319489,-0.277134 2.983736,0 3.436896,-0.09605 4.044916,-0.857363 0.46884,-0.58704 0.46884,-1.733968 0,-2.321007 -0.71545,-0.895823 -0.1286,-0.857363 -13.082128,-0.857363 -11.521824,0 -11.726325,-0.0046 -12.356703,-0.277134 -0.465371,-0.201209 -0.725991,-0.433978 -0.951274,-0.849619 -0.389896,-0.719346 -0.389896,-1.062878 0,-1.782225 0.525396,-0.969341 1.096861,-1.126754 4.090514,-1.126754 h 2.498259 l 0.181184,-0.437204 c 0.371664,-0.89685 0.621752,-1.686354 0.969466,-3.06043 0.670996,-2.651688 0.886294,-4.358017 0.899594,-7.129794 0.01158,-2.413765 -0.01324,-2.673165 -0.311112,-3.248651 -0.693129,-1.339165 -2.257151,-2.294864 -3.797648,-2.320549 l -0.813284,-0.01356 -0.572162,1.950604 c -0.758646,2.58635 -1.341072,4.039692 -2.399024,5.986336 -1.705613,3.138348 -3.7744,5.728125 -6.304791,7.892554 -2.428997,2.077699 -4.88662,3.419993 -7.262578,3.966647 l -1.046073,0.240678 0.03843,12.502932 0.03843,12.50293 4.443298,1.328778 c 4.540946,1.35798 6.282326,1.79543 7.897092,1.98382 0.502805,0.0587 5.64849,0.11433 11.434846,0.12371 9.420266,0.0153 10.57454,-0.005 11.035897,-0.20132 z M 69.428321,50.036406 c -0.327029,-0.08667 -1.104532,-0.650822 -2.167479,-1.572709 -2.249439,-1.950925 -2.518964,-2.295917 -2.518964,-3.224262 0,-0.691301 0.04114,-0.774141 0.657973,-1.325061 0.616837,-0.55092 0.709588,-0.587659 1.483602,-0.587659 1.039248,0 1.425823,0.240839 3.607688,2.247619 1.235146,1.13603 1.645836,1.606362 1.774075,2.031708 0.463961,1.53889 -1.110646,2.887855 -2.836895,2.430364 z m 22.450794,0.05471 c -0.51424,-0.08749 -1.468639,-1.000461 -1.583891,-1.51514 -0.201218,-0.898582 0.121357,-1.426572 1.833847,-3.001636 2.181858,-2.00678 2.568434,-2.247619 3.60768,-2.247619 0.774016,0 0.866766,0.03675 1.483604,0.587659 0.616838,0.55092 0.657973,0.63376 0.657973,1.325061 0,0.928056 -0.269762,1.273549 -2.514501,3.220374 -1.218973,1.057197 -1.80792,1.472074 -2.24279,1.579911 -0.607295,0.150595 -0.648747,0.152311 -1.241922,0.05139 z M 80.301061,45.737369 c -0.451634,-0.199667 -0.720807,-0.442574 -0.941377,-0.849513 -0.276107,-0.509411 -0.308886,-0.824995 -0.308886,-2.973648 0,-2.152191 0.0325,-2.463669 0.310295,-2.97624 0.327693,-0.604589 1.230911,-1.126754 1.949006,-1.126754 0.718097,0 1.621315,0.522165 1.949013,1.126754 0.27782,0.512571 0.310295,0.824049 0.310295,2.97624 0,2.152192 -0.0325,2.46367 -0.310295,2.976241 -0.225283,0.415641 -0.485902,0.648409 -0.951277,0.849618 -0.807206,0.349004 -1.212472,0.348459 -2.006774,-0.0027 z"
       id="path868" />
  </g>
</svg>
