<?xml version="1.0" encoding="UTF-8" standalone="no"?>
<!-- Created with Inkscape (http://www.inkscape.org/) -->

<svg
   width="144.5mm"
   height="144.5mm"
   viewBox="0 0 144.5 144.5"
   version="1.1"
   id="svg1821"
   inkscape:version="1.1 (c4e8f9e, 2021-05-24)"
   sodipodi:docname="focus.svg"
   xmlns:inkscape="http://www.inkscape.org/namespaces/inkscape"
   xmlns:sodipodi="http://sodipodi.sourceforge.net/DTD/sodipodi-0.dtd"
   xmlns="http://www.w3.org/2000/svg"
   xmlns:svg="http://www.w3.org/2000/svg">
  <sodipodi:namedview
     id="namedview1823"
     pagecolor="#ffffff"
     bordercolor="#666666"
     borderopacity="1.0"
     inkscape:pageshadow="2"
     inkscape:pageopacity="0.0"
     inkscape:pagecheckerboard="0"
     inkscape:document-units="mm"
     showgrid="true"
     inkscape:zoom="0.55678311"
     inkscape:cx="345.73606"
     inkscape:cy="288.26306"
     inkscape:window-width="1312"
     inkscape:window-height="847"
     inkscape:window-x="0"
     inkscape:window-y="25"
     inkscape:window-maximized="0"
     inkscape:current-layer="layer1">
    <inkscape:grid
       type="xygrid"
       id="grid1895" />
  </sodipodi:namedview>
  <defs
     id="defs1818" />
  <g
     inkscape:label="Layer 1"
     inkscape:groupmode="layer"
     id="layer1">
    <path
       style="fill:#000000;stroke-width:0.132548"
       d="m 42.010572,94.013334 c -0.716998,-0.59051 -1.956766,-2.71063 -2.618742,-4.47829 -0.97821,-2.612124 -1.008363,-2.897324 -1.008363,-9.538658 0,-6.637342 -0.03114,-6.412357 1.029846,-7.441998 0.847157,-0.822148 2.058821,-1.075709 3.357934,-0.702707 0.247228,0.07085 0.288219,0.01146 0.362028,-0.527227 0.305282,-2.227268 2.602641,-3.521636 4.644001,-2.616525 l 0.645645,0.286279 0.474281,-0.416428 c 0.774341,-0.679894 1.523593,-0.946523 2.461081,-0.875784 0.445593,0.03348 0.914548,0.105937 1.042125,0.160967 0.218016,0.09378 0.231963,-0.142393 0.231963,-3.932927 0,-4.551942 0.07308,-5.046424 0.877464,-5.93679 0.648292,-0.717567 1.441621,-1.073094 2.404834,-1.077703 1.313064,-0.0069 2.350778,0.620367 2.992204,1.806872 0.285732,0.528579 0.286819,0.564487 0.352891,11.685168 l 0.06627,11.154935 0.411697,0.509272 c 0.836675,1.034939 0.819271,1.031362 5.354136,1.105929 3.822819,0.06283 4.071561,0.08209 4.572899,0.352891 0.997014,0.538575 1.679085,1.459325 1.911937,2.580939 0.264589,1.274577 -0.198114,2.620875 -1.193797,3.473095 -0.859594,0.73577 -1.473655,0.88284 -3.690926,0.88401 -3.088468,0.002 -4.227369,0.28037 -6.06794,1.48528 -2.130962,1.39501 -3.319727,1.79532 -5.691743,1.91662 -1.606383,0.0821 -1.61105,0.0816 -1.955082,-0.2625 -0.43165,-0.43166 -0.437619,-0.80638 -0.0195,-1.22448 0.298407,-0.29841 0.427368,-0.32551 1.557438,-0.3273 2.03101,-0.002 3.143157,-0.36046 5.142255,-1.65171 2.133076,-1.37778 3.109383,-1.64306 6.428573,-1.74672 2.818719,-0.088 3.165718,-0.18826 3.564672,-1.028961 0.421132,-0.887452 0.113046,-1.899094 -0.729879,-2.396878 -0.414295,-0.244639 -0.755766,-0.270251 -4.42537,-0.332002 -3.420972,-0.05756 -4.049066,-0.09974 -4.496405,-0.301045 -0.92225,-0.415282 -1.625031,-1.104715 -2.091251,-2.051558 l -0.43738,-0.888257 -0.06627,-11.004448 c -0.03646,-6.052448 -0.116026,-11.105246 -0.176811,-11.228448 -0.293214,-0.594181 -1.341559,-0.86285 -1.997355,-0.511886 -0.754494,0.403795 -0.741881,0.231821 -0.741881,10.115825 0,8.97997 -0.0028,9.078408 -0.27472,9.424007 -0.32549,0.413792 -0.765553,0.44899 -1.201763,0.09608 l -0.312915,-0.25317 -0.06627,-3.99947 -0.06627,-3.999491 -0.432872,-0.386551 c -0.598648,-0.534564 -1.319093,-0.534588 -1.91776,-2.4e-5 l -0.432872,0.386527 -0.06627,3.57637 c -0.06074,3.27734 -0.08739,3.599666 -0.318779,3.855013 -0.355463,0.392261 -0.923055,0.360526 -1.262176,-0.07063 -0.259495,-0.329891 -0.274745,-0.515348 -0.275213,-3.346818 -5.29e-4,-2.721543 -0.02392,-3.036003 -0.254838,-3.414712 -0.529063,-0.867666 -1.876326,-0.867666 -2.405389,0 -0.233917,0.383614 -0.254382,0.700667 -0.254836,3.948083 -5.29e-4,3.233592 -0.0211,3.556397 -0.244936,3.832839 -0.332334,0.410421 -1.034455,0.410421 -1.366789,0 -0.211734,-0.26147 -0.244508,-0.552609 -0.244937,-2.175997 -5.29e-4,-1.639255 -0.03366,-1.928513 -0.265156,-2.308209 -0.478612,-0.784981 -1.578083,-0.897405 -2.245635,-0.229621 l -0.338493,0.338606 v 5.862107 c 0,5.737828 0.0066,5.887217 0.312887,7.04616 0.536029,2.028469 1.304049,3.636449 2.498228,5.230459 0.482619,0.64421 0.539457,1.00075 0.229971,1.44261 -0.233502,0.33338 -0.934922,0.40458 -1.269654,0.12887 z m 59.208118,-0.12887 c -0.30949,-0.44185 -0.25264,-0.79839 0.22996,-1.4426 1.19419,-1.59402 1.9622,-3.202 2.49823,-5.230464 0.30625,-1.158943 0.3129,-1.30833 0.3129,-7.046157 v -5.862111 l -0.33849,-0.338603 c -0.66756,-0.667787 -1.76704,-0.555363 -2.24563,0.229619 -0.2315,0.379696 -0.26473,0.668956 -0.26516,2.308211 -5.3e-4,1.623386 -0.0333,1.914528 -0.24494,2.175997 -0.33234,0.410422 -1.03446,0.410422 -1.366796,0 -0.2238,-0.276442 -0.24448,-0.599249 -0.24494,-3.832841 -2.5e-4,-3.247416 -0.0206,-3.564466 -0.25482,-3.948083 -0.15386,-0.252367 -0.44165,-0.478935 -0.72853,-0.573614 -0.65224,-0.21531 -1.33912,0.02064 -1.67686,0.573614 -0.23092,0.378709 -0.2544,0.693169 -0.25484,3.414712 -5.3e-4,2.83147 -0.0161,3.016927 -0.27523,3.34682 -0.33911,0.431125 -0.90671,0.462862 -1.26217,0.07062 -0.23138,-0.255347 -0.25803,-0.577673 -0.31877,-3.855013 l -0.0663,-3.576367 -0.43287,-0.38653 c -0.59867,-0.534564 -1.31913,-0.53454 -1.91776,2.4e-5 l -0.43289,0.386551 -0.0663,3.999494 -0.0663,3.99947 -0.31293,0.253169 c -0.43619,0.352888 -0.87626,0.317693 -1.20175,-0.09608 -0.27186,-0.345599 -0.27473,-0.444037 -0.27473,-9.424007 0,-9.884004 0.0115,-9.71203 -0.74187,-10.115825 -0.65581,-0.350964 -1.70414,-0.08232 -1.99737,0.511887 -0.0608,0.123133 -0.14033,5.17467 -0.17679,11.225492 l -0.0663,11.001466 -0.35098,0.748636 c -0.42751,0.911852 -1.25491,1.765599 -2.08139,2.147657 -0.57511,0.265848 -0.88168,0.289282 -4.592668,0.351147 -3.670288,0.06122 -4.011003,0.08667 -4.425369,0.331359 -0.842947,0.497784 -1.151009,1.509426 -0.72988,2.396881 0.398957,0.840739 0.745977,0.940919 3.564675,1.028949 3.319192,0.10364 4.295492,0.36894 6.428572,1.74673 1.99911,1.29124 3.11125,1.64847 5.14226,1.6517 1.13006,0.002 1.25904,0.0289 1.55742,0.3273 0.41813,0.41811 0.41217,0.79283 -0.0183,1.22448 -0.34402,0.34404 -0.3487,0.34466 -1.95509,0.2625 -2.37201,-0.1213 -3.56078,-0.52161 -5.69174,-1.91661 -1.84056,-1.20492 -2.979438,-1.48368 -6.067929,-1.48528 -2.217269,-10e-4 -2.831333,-0.14836 -3.690927,-0.88402 -1.954217,-1.67273 -1.581906,-4.811547 0.71814,-6.054025 0.501341,-0.270825 0.750083,-0.290015 4.572902,-0.352891 4.534864,-0.07452 4.517454,-0.07108 5.354144,-1.105929 l 0.41168,-0.509273 0.0663,-11.154935 c 0.066,-11.120679 0.0672,-11.156587 0.35287,-11.685166 0.64144,-1.186505 1.67915,-1.813155 2.9922,-1.806872 0.96322,0.0046 1.75654,0.360136 2.40484,1.077702 0.80438,0.890367 0.87746,1.384849 0.87746,5.936792 0,3.790487 0.0137,4.026826 0.23198,3.932928 0.12749,-0.05503 0.59652,-0.127492 1.04211,-0.160967 0.93749,-0.07086 1.68675,0.19582 2.46109,0.875781 l 0.47428,0.41643 0.64563,-0.286279 c 2.04136,-0.90511 4.338716,0.389255 4.644006,2.616525 0.0738,0.538507 0.11488,0.598194 0.36204,0.527225 1.29911,-0.372999 2.51077,-0.119465 3.35791,0.702709 1.06099,1.029642 1.02985,0.804653 1.02985,7.441995 0,6.641335 -0.03,6.926537 -1.00836,9.53866 -0.66196,1.76767 -1.90173,3.88778 -2.61873,4.4783 -0.33475,0.27566 -1.03615,0.20453 -1.26967,-0.12887 z M 61.167812,67.353281 c -0.51272,-0.230516 -0.578496,-0.474144 -0.580761,-2.151211 -0.0016,-1.157337 0.03577,-1.388493 0.272905,-1.689975 0.345667,-0.439452 0.931754,-0.465889 1.310693,-0.05916 0.220813,0.237096 0.270274,0.467127 0.270274,1.259215 v 0.969108 h 0.9941 c 1.129387,0 1.524307,0.235056 1.524307,0.907288 0,0.699407 -0.383775,0.877961 -1.968619,0.915911 -0.986602,0.02363 -1.535223,-0.02294 -1.822899,-0.151107 z m 19.56471,0.09516 c -0.677394,-0.268049 -0.877136,-1.022601 -0.397651,-1.502111 0.218065,-0.218064 0.441836,-0.265091 1.259213,-0.265091 h 0.99411 v -0.969108 c 0,-1.103545 0.26018,-1.550884 0.89985,-1.547283 0.78097,0.0046 0.95584,0.411956 0.95584,2.227887 0,2.039839 -0.0277,2.068914 -2.00939,2.106151 -0.82674,0.01606 -1.59262,-0.0069 -1.701972,-0.05044 z m -9.260175,-5.52747 c -1.150022,-0.416177 -2.137979,-1.804418 -2.134745,-2.999682 0.0024,-1.114093 0.730202,-2.264346 1.785204,-2.82388 1.118931,-0.593425 2.764742,-0.298455 3.670382,0.657834 1.223763,1.292235 1.187994,3.082483 -0.08714,4.35759 -0.935262,0.935262 -2.087051,1.223099 -3.233726,0.808138 z m 1.959837,-2.08203 c 1.063236,-1.063234 -0.138035,-2.713381 -1.517795,-2.084782 -0.191236,0.08713 -0.432549,0.322738 -0.536443,0.523627 -0.712224,1.377327 0.964107,2.651286 2.054238,1.561155 z M 61.035872,54.578326 c -0.333859,-0.222878 -0.45063,-0.742331 -0.45063,-2.00439 0,-0.730361 0.06844,-1.478149 0.152069,-1.661726 0.222903,-0.489208 0.861536,-0.644558 2.396254,-0.582923 1.194805,0.04792 1.352539,0.08415 1.576702,0.360916 0.32299,0.398888 0.316683,0.87333 -0.01606,1.206042 -0.218062,0.218062 -0.441812,0.265115 -1.259191,0.265115 h -0.994125 v 0.9941 c 0,0.817381 -0.04724,1.041245 -0.265091,1.259216 -0.26367,0.26367 -0.861589,0.349497 -1.139957,0.163719 z m 21.817412,-0.163719 c -0.21807,-0.218063 -0.26509,-0.441835 -0.26509,-1.259216 v -0.9941 h -0.99411 c -0.817377,0 -1.041241,-0.04724 -1.259213,-0.265115 -0.33271,-0.332712 -0.339015,-0.807154 -0.01606,-1.206041 0.224253,-0.276833 0.381897,-0.312924 1.576703,-0.360916 1.55375,-0.06237 2.23804,0.105477 2.42398,0.594479 0.0683,0.17977 0.12428,0.9235 0.12428,1.652577 0,1.259674 -0.11694,1.77915 -0.45062,2.001982 -0.27836,0.185962 -0.87626,0.09998 -1.13995,-0.163719 z"
       id="path1583" />
  </g>
</svg>
