<?xml version="1.0" encoding="UTF-8" standalone="no"?>
<svg
   height="32"
   viewBox="0 0 32 32"
   width="32"
   version="1.1"
   id="svg830"
   sodipodi:docname="Delay.svg"
   inkscape:version="1.1 (c4e8f9e, 2021-05-24)"
   xmlns:inkscape="http://www.inkscape.org/namespaces/inkscape"
   xmlns:sodipodi="http://sodipodi.sourceforge.net/DTD/sodipodi-0.dtd"
   xmlns="http://www.w3.org/2000/svg"
   xmlns:svg="http://www.w3.org/2000/svg">
  <defs
     id="defs834" />
  <sodipodi:namedview
     id="namedview832"
     pagecolor="#ffffff"
     bordercolor="#666666"
     borderopacity="1.0"
     inkscape:pageshadow="2"
     inkscape:pageopacity="0.0"
     inkscape:pagecheckerboard="0"
     showgrid="false"
     inkscape:zoom="24.006174"
     inkscape:cx="19.245049"
     inkscape:cy="20.390588"
     inkscape:window-width="2240"
     inkscape:window-height="1263"
     inkscape:window-x="0"
     inkscape:window-y="25"
     inkscape:window-maximized="0"
     inkscape:current-layer="svg830" />
  <g
     id="g3033"
     transform="translate(-1.4264773,-0.78919935)">
    <g
       fill="#e0e0e0"
       transform="matrix(0.05544626,0,0,0.0546875,1.8057574,2)"
       id="g828">
      <path
         d="M 276.193,58.507 V 40.389 h 14.578 c 11.153,0 20.194,-9.042 20.194,-20.194 C 310.965,9.043 301.923,0 290.771,0 h -69.544 c -11.153,0 -20.194,9.042 -20.194,20.194 0,11.152 9.042,20.194 20.194,20.194 h 14.578 V 58.506 C 119.952,68.76 28.799,166.327 28.799,284.799 28.799,410.078 130.721,512 256,512 381.279,512 483.201,410.078 483.201,284.799 483.2,166.327 392.046,68.76 276.193,58.507 Z m 0,412.009 v -20.124 c 0,-11.153 -9.042,-20.194 -20.194,-20.194 -11.153,0 -20.194,9.042 -20.194,20.194 v 20.124 C 148.895,461.131 79.668,391.902 70.283,304.994 h 20.124 c 11.153,0 20.194,-9.042 20.194,-20.194 0,-11.152 -9.042,-20.194 -20.194,-20.194 H 70.282 c 9.385,-86.91 78.614,-156.137 165.522,-165.523 v 20.124 c 0,11.153 9.042,20.194 20.194,20.194 11.153,0 20.194,-9.042 20.194,-20.194 V 99.081 c 86.91,9.385 156.137,78.614 165.522,165.523 H 421.59 c -11.153,0 -20.194,9.042 -20.194,20.194 0,11.152 9.042,20.194 20.194,20.194 h 20.126 c -9.385,86.911 -78.613,156.14 -165.523,165.524 z"
         id="path824" />
      <path
         d="m 317.248,194.99 -58.179,58.18 c -1.011,-0.097 -2.034,-0.151 -3.071,-0.151 -17.552,0 -31.779,14.229 -31.779,31.779 0,17.552 14.228,31.779 31.779,31.779 17.551,0 31.779,-14.229 31.779,-31.779 0,-1.037 -0.054,-2.06 -0.151,-3.07 l 58.178,-58.18 c 7.887,-7.885 7.887,-20.672 0,-28.559 -7.882,-7.886 -20.669,-7.886 -28.556,0.001 z"
         id="path826" />
    </g>
    <circle
       style="fill:#ffffff;fill-opacity:1;stroke:#e0e0e0;stroke-opacity:1"
       id="path938"
       cx="25.7024"
       cy="25.830399"
       r="5.2480001" />
    <g
       aria-label="!"
       transform="matrix(-1.195264,0,0,1.195264,-4.9756,-5.0437469)"
       id="text2070"
       style="font-size:8.21577px;line-height:1.25;fill:#e0e0e0;stroke-width:0.205394">
      <path
         d="m -24.827871,22.843758 -0.184534,4.252302 h -1.307783 l -0.184534,-4.252302 z m -0.02808,5.973281 h -1.620689 v -1.059064 h 1.620689 z"
         style="font-weight:bold;-inkscape-font-specification:'sans-serif Bold';fill:#000000;fill-opacity:1"
         id="path2938" />
    </g>
  </g>
</svg>
