<?xml version="1.0" encoding="UTF-8" standalone="no"?>
<svg
   height="32"
   viewBox="0 0 32 32"
   width="32"
   version="1.1"
   id="svg826"
   sodipodi:docname="Event.svg"
   inkscape:version="1.1 (c4e8f9e, 2021-05-24)"
   xmlns:inkscape="http://www.inkscape.org/namespaces/inkscape"
   xmlns:sodipodi="http://sodipodi.sourceforge.net/DTD/sodipodi-0.dtd"
   xmlns="http://www.w3.org/2000/svg"
   xmlns:svg="http://www.w3.org/2000/svg">
  <defs
     id="defs830" />
  <sodipodi:namedview
     id="namedview828"
     pagecolor="#ffffff"
     bordercolor="#666666"
     borderopacity="1.0"
     inkscape:pageshadow="2"
     inkscape:pageopacity="0.0"
     inkscape:pagecheckerboard="0"
     showgrid="false"
     inkscape:zoom="39.0625"
     inkscape:cx="7.9872"
     inkscape:cy="8"
     inkscape:window-width="5120"
     inkscape:window-height="1387"
     inkscape:window-x="0"
     inkscape:window-y="25"
     inkscape:window-maximized="1"
     inkscape:current-layer="svg826" />
  <path
     d="M 8,4 A 2,2 0 0 0 6,6 2,2 0 0 0 8,8 c 8.8602,0 16,7.1398 16,16 a 2,2 0 0 0 2,2 2,2 0 0 0 2,-2 C 28,12.978 19.022,4 8,4 Z m 0,8 a 2,2 0 0 0 -2,2 2,2 0 0 0 2,2 c 4.442,0 8,3.558 8,8 a 2,2 0 0 0 2,2 2,2 0 0 0 2,-2 C 20,17.3964 14.6038,12 8,12 Z m 0,8 a 4,4 0 0 0 -4,4 4,4 0 0 0 4,4 4,4 0 0 0 4,-4 4,4 0 0 0 -4,-4 z"
     fill="#e0e0e0"
     id="path824"
     style="stroke-width:2" />
</svg>
