<?xml version="1.0" encoding="UTF-8" standalone="no"?>
<svg
   height="32"
   viewBox="0 0 32 32"
   width="32"
   version="1.1"
   id="svg4"
   sodipodi:docname="Wait.svg"
   inkscape:version="1.2.1 (9c6d41e410, 2022-07-14, custom)"
   xmlns:inkscape="http://www.inkscape.org/namespaces/inkscape"
   xmlns:sodipodi="http://sodipodi.sourceforge.net/DTD/sodipodi-0.dtd"
   xmlns="http://www.w3.org/2000/svg"
   xmlns:svg="http://www.w3.org/2000/svg">
  <defs
     id="defs8" />
  <sodipodi:namedview
     id="namedview6"
     pagecolor="#ffffff"
     bordercolor="#666666"
     borderopacity="1.0"
     inkscape:showpageshadow="2"
     inkscape:pageopacity="0.0"
     inkscape:pagecheckerboard="0"
     inkscape:deskcolor="#d1d1d1"
     showgrid="false"
     inkscape:zoom="16.453125"
     inkscape:cx="30.024691"
     inkscape:cy="33.215575"
     inkscape:window-width="2570"
     inkscape:window-height="1330"
     inkscape:window-x="0"
     inkscape:window-y="81"
     inkscape:window-maximized="0"
     inkscape:current-layer="svg4" />
  <path
     d="m 6.0202268,2.6936357 c -1.8429314,0 -3.3265911,1.4836597 -3.3265911,3.3265911 V 25.979773 c 0,1.842932 1.4836597,3.326591 3.3265911,3.326591 H 25.979773 c 1.842932,0 3.326591,-1.483659 3.326591,-3.326591 V 6.0202268 c 0,-1.8429314 -1.483659,-3.3265911 -3.326591,-3.3265911 z m 0,0.8316478 H 25.979773 c 1.382197,0 2.494943,1.1127449 2.494943,2.4949433 V 25.979773 c 0,1.382197 -1.112746,2.494943 -2.494943,2.494943 H 6.0202268 c -1.3821984,0 -2.4949433,-1.112746 -2.4949433,-2.494943 V 6.0202268 c 0,-1.3821984 1.1127449,-2.4949433 2.4949433,-2.4949433 z m -0.00559,2.0799497 a 0.41582388,0.41582388 0 0 0 -0.288313,0.1210068 0.41582388,0.41582388 0 0 0 0,0.5880187 l 3.3265911,3.3265912 a 0.41582388,0.41582388 0 0 0 0.5880162,0 0.41582388,0.41582388 0 0 0 0,-0.5880162 L 6.3143588,5.7262405 A 0.41582388,0.41582388 0 0 0 6.0146753,5.6052332 Z m 19.9595472,0 A 0.41582388,0.41582388 0 0 0 25.685869,5.72624 l -3.326591,3.3265937 a 0.41582388,0.41582388 0 0 0 0,0.5880162 0.41582388,0.41582388 0 0 0 0.588017,0 l 3.326591,-3.3265912 a 0.41582388,0.41582388 0 0 0 0,-0.5880187 0.41582388,0.41582388 0 0 0 -0.299683,-0.1210068 z m -14.13219,4.5732328 a 0.83173094,0.83173094 0 0 0 -0.157574,0.01623 c -0.0024,4.53e-4 -0.0051,3.41e-4 -0.0072,8.07e-4 -0.0059,0.0012 -0.01118,0.0027 -0.01705,0.004 a 0.83173094,0.83173094 0 0 0 -0.128327,0.03981 c -0.01011,0.004 -0.01997,0.0085 -0.03005,0.01304 a 0.83173094,0.83173094 0 0 0 -0.102326,0.05522 c -0.0088,0.0056 -0.0181,0.01038 -0.0268,0.01623 -0.0037,0.0025 -0.0069,0.0056 -0.01065,0.0083 a 0.83173094,0.83173094 0 0 0 -0.08934,0.0731 c -0.009,0.0085 -0.01836,0.0165 -0.0268,0.02529 a 0.83173094,0.83173094 0 0 0 -8.06e-4,8.07e-4 0.83173094,0.83173094 0 0 0 -0.07715,0.09341 c -0.0075,0.01038 -0.01489,0.02021 -0.02182,0.03087 a 0.83173094,0.83173094 0 0 0 -0.05929,0.110443 c -0.0056,0.01251 -0.01118,0.02448 -0.01623,0.03736 a 0.83173094,0.83173094 0 0 0 -0.03899,0.12508 c -0.0017,0.008 -0.0035,0.0157 -0.0048,0.02342 a 0.83173094,0.83173094 0 0 0 -0.01623,0.158373 c 0,1.247472 0.804163,2.181164 1.557718,3.042336 0.632771,0.7232 1.177709,1.36756 1.559351,1.94755 -0.381634,0.579993 -0.92658,1.224353 -1.559338,1.947554 -0.753555,0.861169 -1.557717,1.794861 -1.557717,3.042333 a 0.83173094,0.83173094 0 0 0 0.01705,0.168111 0.83173094,0.83173094 0 0 0 0.04386,0.14214 c 0.0037,0.009 0.0075,0.01782 0.01144,0.0268 a 0.83173094,0.83173094 0 0 0 0.06092,0.113689 c 0.0043,0.0064 0.0077,0.01304 0.01224,0.01944 l 8.06e-4,8.06e-4 a 0.83173094,0.83173094 0 0 0 0.0804,0.09828 c 0.0085,0.0092 0.0165,0.01828 0.02527,0.02688 a 0.83173094,0.83173094 0 0 0 8.06e-4,8.06e-4 0.83173094,0.83173094 0 0 0 0.09746,0.0804 c 0.0088,0.0064 0.01755,0.01291 0.0268,0.01855 a 0.83173094,0.83173094 0 0 0 0.115313,0.06255 c 0.0083,0.0037 0.01597,0.0081 0.02448,0.01158 a 0.83173094,0.83173094 0 0 0 0.140488,0.04306 c 0.0023,4.71e-4 0.0043,0.0012 0.0064,0.0016 a 0.83173094,0.83173094 0 0 0 0.004,0 0.83173094,0.83173094 0 0 0 0.164043,0.01694 h 8.31648 a 0.83173094,0.83173094 0 0 0 0.168111,-0.01694 0.83173094,0.83173094 0 0 0 0.155924,-0.04793 0.83173094,0.83173094 0 0 0 0.121833,-0.06577 c 0.0077,-0.0051 0.01597,-0.0094 0.02342,-0.01452 a 0.83173094,0.83173094 0 0 0 0.009,-0.0064 0.83173094,0.83173094 0 0 0 0.09828,-0.08123 c 0.0056,-0.0053 0.01171,-0.01 0.01704,-0.01533 a 0.83173094,0.83173094 0 0 0 0.08527,-0.103949 c 0.0051,-0.0072 0.01065,-0.01385 0.01544,-0.02102 a 0.83173094,0.83173094 0 0 0 0.06334,-0.116963 c 0.0045,-0.01011 0.0088,-0.02048 0.01304,-0.03087 a 0.83173094,0.83173094 0 0 0 0.04061,-0.130748 c 0.0015,-0.0067 0.0027,-0.01357 0.004,-0.02021 a 0.83173094,0.83173094 0 0 0 0.01623,-0.15917 c 0,-1.247472 -0.804162,-2.181164 -1.557718,-3.042336 -0.632784,-0.723525 -1.177719,-1.367886 -1.559364,-1.947878 0.381637,-0.579993 0.92658,-1.224351 1.55934,-1.947554 0.753556,-0.86117 1.557718,-1.794861 1.557718,-3.042333 a 0.83173094,0.83173094 0 0 0 -0.01705,-0.168111 v -8.07e-4 a 0.83173094,0.83173094 0 0 0 -0.04223,-0.135618 c -0.0051,-0.01277 -0.0098,-0.02503 -0.01544,-0.03736 a 0.83173094,0.83173094 0 0 0 -0.05605,-0.10395 c -0.0051,-0.0077 -0.0093,-0.01597 -0.01462,-0.02342 a 0.83173094,0.83173094 0 0 0 -0.0098,-0.01304 0.83173094,0.83173094 0 0 0 -0.06579,-0.0804 c -0.01038,-0.01118 -0.02076,-0.02261 -0.03167,-0.03329 a 0.83173094,0.83173094 0 0 0 -0.01144,-0.01065 0.83173094,0.83173094 0 0 0 -0.07877,-0.06416 c -0.01277,-0.0093 -0.02554,-0.0189 -0.03899,-0.02762 l -8.06e-4,-8.06e-4 a 0.83173094,0.83173094 0 0 0 -0.100703,-0.05442 c -0.01304,-0.0061 -0.02554,-0.01251 -0.03899,-0.01782 a 0.83173094,0.83173094 0 0 0 -0.124255,-0.03816 c -0.009,-0.002 -0.01782,-0.004 -0.0268,-0.0056 a 0.83173094,0.83173094 0 0 0 -0.158229,-0.01629 h -8.316477 z m 1.320575,1.663295 h 5.675164 c -0.197759,0.366508 -0.254072,0.656254 -0.656211,1.115904 -0.701829,0.802126 -1.578718,1.640384 -2.09376,2.67038 a 0.83173094,0.83173094 0 0 0 -0.08689,0.371968 h -0.0016 a 0.83173094,0.83173094 0 0 0 -0.08689,-0.371968 C 15.397389,14.598049 14.5205,13.759791 13.818629,12.957665 13.416458,12.498015 13.360166,12.208269 13.162402,11.841761 Z M 9.3413543,22.23819 A 0.41582388,0.41582388 0 0 0 9.05304,22.359211 l -3.3265911,3.326591 a 0.41582388,0.41582388 0 0 0 0,0.588015 0.41582388,0.41582388 0 0 0 0.5880164,0 l 3.3265909,-3.326591 a 0.41582388,0.41582388 0 0 0 0,-0.588015 0.41582388,0.41582388 0 0 0 -0.2996833,-0.121021 z m 13.3063657,0 a 0.41582388,0.41582388 0 0 0 -0.288316,0.121021 0.41582388,0.41582388 0 0 0 0,0.588015 l 3.326591,3.326591 a 0.41582388,0.41582388 0 0 0 0.588015,0 0.41582388,0.41582388 0 0 0 0,-0.588015 L 22.947419,22.359211 A 0.41582388,0.41582388 0 0 0 22.647733,22.23819 Z"
     fill="#e0e0e0"
     stroke-linecap="round"
     stroke-linejoin="round"
     stroke-width="0.831645"
     id="path2" />
</svg>
